<svg width="134" height="94" viewBox="0 0 134 94" fill="none" xmlns="http://www.w3.org/2000/svg">
<g clip-path="url(#clip0_135_2)">
<path d="M45.1734 38.155C40.4793 38.155 36.6594 36.6069 33.6947 33.5107C30.7301 30.4145 29.2667 26.28 29.2667 21.0882C29.2667 15.8964 30.673 12.0261 33.5047 8.79775C36.3364 5.56939 40.2513 3.94577 45.2684 3.94577C49.9055 3.94577 53.6874 5.47499 56.614 8.51456C59.5407 11.5541 61.0041 15.6321 61.0041 20.7106C61.0041 25.7891 59.5217 30.2069 56.576 33.3786C53.6304 36.5503 49.8295 38.1362 45.1544 38.1362M45.1164 30.6411C46.8458 30.6411 48.1001 29.8859 48.8603 28.3945C49.6204 26.8841 50.0005 24.1466 50.0005 20.1442C50.0005 14.3483 48.4422 11.4597 45.3254 11.4597C41.9617 11.4597 40.2703 14.7636 40.2703 21.3525C40.2703 27.5449 41.8856 30.6411 45.1164 30.6411Z" fill="#C9252C"/>
<path d="M65.3562 37.6453V4.45551H89.9669V11.4031H75.3145V17.4067H80.8637C83.9615 17.4067 86.375 17.7465 88.1044 18.4262C89.8338 19.1058 91.2211 20.2197 92.2474 21.7489C93.2736 23.2782 93.7867 25.1472 93.7867 27.3372C93.7867 29.1496 93.3686 30.9243 92.5324 32.6423C91.6963 34.3603 90.2899 35.6252 88.2755 36.437C86.261 37.2488 84.2465 37.6453 82.1941 37.6453H65.3372M75.3335 30.2635H80.3316C82.3841 30.2635 83.4103 29.244 83.4103 27.1862C83.4103 25.1283 82.156 24.2033 79.6475 24.2033H75.3335V30.2635Z" fill="#C9252C"/>
<path d="M98.0437 37.6453V4.45551H125.638V37.6453H115.661V11.5919H108.021V37.6453H98.0437Z" fill="#C9252C"/>
<path d="M128.413 42.2137H29.5328L10.6045 3.1524C9.27414 0.377148 5.92937 -0.774489 3.15473 0.547062C1.15927 1.52879 0 3.51111 0 5.58783C0 6.39964 0.17104 7.23033 0.551127 8.02326C0.551127 8.02326 17.7311 43.4786 19.8216 47.8019C17.7501 52.1064 1.36832 86.0136 1.36832 86.0136C0.988229 86.7877 0.817189 87.6184 0.817189 88.4302C0.817189 90.5069 1.97646 92.5081 3.97192 93.4709C6.74656 94.8114 10.0913 93.6409 11.4216 90.8656L29.5138 53.3902H128.394C131.472 53.3902 133.981 50.8981 133.981 47.8019C133.981 44.7057 131.472 42.2137 128.394 42.2137" fill="#08509F"/>
<path d="M31.3002 52.6166C31.3002 53.4473 30.616 54.1081 29.7798 54.1081H19.8785C19.0424 54.1081 18.3772 53.4284 18.3772 52.6166V42.7805C18.3772 41.9498 19.0424 41.289 19.8785 41.289H29.7798C30.616 41.289 31.3002 41.9498 31.3002 42.7805V52.6166Z" fill="white"/>
<path d="M29.7988 41.289H19.8785C19.0494 41.289 18.3772 41.9568 18.3772 42.7805V52.6355C18.3772 53.4592 19.0494 54.1269 19.8785 54.1269H29.7988C30.628 54.1269 31.3002 53.4592 31.3002 52.6355V42.7805C31.3002 41.9568 30.628 41.289 29.7988 41.289Z" stroke="#C9252C"/>
<path d="M30.0269 46.3864V49.0295H26.169V52.9942H23.5084V49.0295H19.6505V46.3864H23.5084V42.4218H26.169V46.3864H30.0269Z" fill="#C9252C"/>
</g>
<defs>
<clipPath id="clip0_135_2">
<rect width="134" height="94" fill="white"/>
</clipPath>
</defs>
</svg>
