<svg width="475" height="50" viewBox="0 0 475 50" fill="none" xmlns="http://www.w3.org/2000/svg">
<path d="M242.105 0H244.579L246.357 6.34493L248.135 0H250.541L247.4 9.69018C247.199 10.2984 246.985 10.7961 246.758 11.1693C246.531 11.5425 246.277 11.8052 245.996 11.9572C245.715 12.1093 245.394 12.1922 245.033 12.1922C244.565 12.1922 244.111 12.1231 243.696 11.971V10.2293C243.696 10.2293 243.803 10.2569 243.857 10.2846C243.91 10.3122 243.99 10.3261 244.071 10.3399C244.151 10.3537 244.231 10.3675 244.311 10.3675C244.752 10.3675 245.073 10.0634 245.274 9.46901L242.105 0Z" fill="#636466"/>
<path d="M254.873 4.53407H252.975V11.9849H250.996V2.91673H256.838V11.971H254.86V4.53407H254.873Z" fill="#636466"/>
<path d="M260.542 11.0172V14.8325H258.563V2.91673H260.542V3.92584C260.689 3.52496 260.916 3.22084 261.237 2.99967C261.558 2.7785 261.892 2.68173 262.253 2.68173C262.694 2.68173 263.082 2.76467 263.43 2.94438C263.777 3.12408 264.045 3.38672 264.245 3.73231C264.446 4.07789 264.539 4.50642 264.539 4.99023V9.33077C264.539 10.3261 264.326 11.0587 263.898 11.5287C263.47 11.9987 262.922 12.2337 262.267 12.2337C261.478 12.2337 260.903 11.819 260.569 11.0034L260.542 11.0172ZM260.542 5.47405V9.38607C260.542 9.77312 260.649 10.0772 260.849 10.3122C261.05 10.5472 261.277 10.6578 261.531 10.6578C261.812 10.6578 262.039 10.5472 262.213 10.3261C262.387 10.1049 262.481 9.80077 262.481 9.39989V5.48788C262.481 5.12847 262.4 4.852 262.227 4.65847C262.053 4.46495 261.825 4.38201 261.545 4.38201C261.291 4.38201 261.063 4.47877 260.863 4.6723C260.662 4.86582 260.569 5.14229 260.569 5.48788L260.542 5.47405Z" fill="#636466"/>
<path d="M267.989 6.73198C268.604 6.45551 269.072 6.20669 269.366 5.99934C269.66 5.79199 269.807 5.5017 269.807 5.15612C269.807 4.63083 269.486 4.35436 268.858 4.35436C268.55 4.35436 268.31 4.45113 268.123 4.64465C267.935 4.83818 267.842 5.12847 267.842 5.51553V5.69523H265.917V5.23906C265.917 4.87965 265.983 4.54789 266.13 4.24378C266.278 3.93966 266.478 3.66319 266.745 3.41437C267.013 3.16555 267.32 2.99967 267.681 2.86144C268.042 2.7232 268.43 2.66791 268.858 2.66791C269.767 2.66791 270.502 2.86144 271.05 3.23467C271.612 3.62172 271.879 4.20231 271.879 4.99024V10.6302C271.879 10.9758 271.893 11.2384 271.933 11.4457C271.973 11.6531 272.04 11.819 272.133 11.9572H270.061C269.954 11.7913 269.901 11.501 269.901 11.1002C269.687 11.4872 269.446 11.7637 269.165 11.9572C268.885 12.1369 268.497 12.2337 268.002 12.2337C267.32 12.2337 266.786 12.0263 266.371 11.5978C265.957 11.1693 265.756 10.5472 265.756 9.73165C265.756 9.20636 265.836 8.77784 265.997 8.40461C266.157 8.03138 266.398 7.72726 266.732 7.46462C267.066 7.20198 267.481 6.95316 268.002 6.73198H267.989ZM269.82 9.51048V7.29874L268.524 8.15579C268.069 8.4599 267.855 8.88843 267.855 9.44136C267.855 9.81459 267.922 10.1187 268.069 10.3399C268.216 10.5749 268.43 10.6855 268.724 10.6855C269.045 10.6855 269.312 10.5887 269.513 10.3814C269.714 10.174 269.82 9.88371 269.82 9.49665V9.51048Z" fill="#636466"/>
<path d="M273.484 11.971V2.91673H276.733C277.147 2.91673 277.548 2.99967 277.936 3.15173C278.324 3.30379 278.631 3.55261 278.872 3.87055C279.112 4.18848 279.219 4.57554 279.219 5.03171C279.219 5.57082 279.086 6.02699 278.832 6.37257C278.578 6.73198 278.27 6.9808 277.896 7.11904C278.35 7.29874 278.711 7.56138 278.979 7.89314C279.246 8.22491 279.38 8.72255 279.38 9.38607C279.38 10.2569 279.126 10.9066 278.631 11.3352C278.136 11.7637 277.521 11.971 276.813 11.971H273.47H273.484ZM275.462 4.40966V6.49698H276.011C276.786 6.49698 277.187 6.1514 277.187 5.46023C277.187 4.76906 276.799 4.42348 276.011 4.42348H275.462V4.40966ZM275.462 7.90697V10.4781H276.118C276.933 10.4781 277.334 10.0634 277.334 9.23401C277.334 8.94372 277.281 8.6949 277.174 8.48755C277.067 8.29402 276.92 8.14197 276.733 8.0452C276.545 7.94844 276.345 7.90697 276.118 7.90697H275.462Z" fill="#636466"/>
<path d="M281.479 2.91673H287V11.971H285.022V4.53407H283.404V8.16961C283.404 9.19254 283.324 9.9943 283.15 10.5887C282.976 11.1831 282.749 11.584 282.441 11.8052C282.147 12.0402 281.786 12.1507 281.358 12.1507C280.971 12.1507 280.596 12.0954 280.222 11.9849V10.4919C280.396 10.5334 280.529 10.5472 280.65 10.5472C280.85 10.5472 280.997 10.5058 281.104 10.4228C281.211 10.3399 281.278 10.174 281.332 9.91136C281.385 9.64871 281.412 9.26166 281.439 8.75019C281.465 8.23873 281.465 7.43697 281.465 6.3864V2.93056L281.479 2.91673Z" fill="#636466"/>
<path d="M288.458 9.37224V5.55699C288.458 4.89347 288.578 4.35436 288.832 3.92584C289.086 3.49731 289.434 3.17937 289.888 2.98585C290.343 2.79232 290.864 2.69556 291.466 2.69556C292.067 2.69556 292.589 2.79232 293.043 2.99967C293.498 3.20702 293.859 3.51114 294.1 3.93966C294.34 4.36818 294.474 4.9073 294.474 5.57082V7.67197H290.41V9.64871C290.41 9.96665 290.503 10.2293 290.69 10.3952C290.877 10.5611 291.132 10.6578 291.452 10.6578C291.773 10.6578 292.027 10.5611 292.214 10.3813C292.402 10.2016 292.495 9.95282 292.495 9.63489V9.12342H294.474V9.37224C294.474 10.3537 294.207 11.0725 293.658 11.5425C293.11 12.0125 292.375 12.2475 291.452 12.2475C290.851 12.2475 290.316 12.1507 289.875 11.9572C289.434 11.7637 289.073 11.4457 288.819 11.0172C288.565 10.5887 288.444 10.0358 288.444 9.38607L288.458 9.37224ZM290.423 5.29435V6.17904H292.509V5.29435C292.509 4.97641 292.415 4.72759 292.228 4.54789C292.041 4.36818 291.787 4.27142 291.466 4.27142C291.145 4.27142 290.877 4.35436 290.69 4.53406C290.503 4.71377 290.41 4.96259 290.41 5.28053L290.423 5.29435Z" fill="#636466"/>
<path d="M299.768 7.97608H297.87V11.971H295.891V2.91673H297.87V6.37257H299.768V2.91673H301.747V11.971H299.768V7.97608Z" fill="#636466"/>
<path d="M305.317 8.32167L307.429 2.91673H309.341V11.971H307.416V6.63522L305.317 11.971H303.391V2.91673H305.317V8.32167Z" fill="#636466"/>
<path d="M310.731 9.37224V5.55699C310.731 4.89347 310.852 4.35436 311.106 3.92584C311.36 3.49731 311.707 3.17937 312.162 2.98585C312.617 2.79232 313.138 2.69556 313.74 2.69556C314.341 2.69556 314.863 2.79232 315.317 2.99967C315.772 3.20702 316.133 3.51114 316.373 3.93966C316.614 4.36818 316.748 4.9073 316.748 5.57082V7.67197H312.683V9.64871C312.683 9.96665 312.777 10.2293 312.964 10.3952C313.151 10.5611 313.405 10.6578 313.726 10.6578C314.047 10.6578 314.301 10.5611 314.488 10.3813C314.675 10.2016 314.769 9.95282 314.769 9.63489V9.12342H316.748V9.37224C316.748 10.3537 316.48 11.0725 315.932 11.5425C315.384 12.0125 314.649 12.2475 313.726 12.2475C313.125 12.2475 312.59 12.1507 312.149 11.9572C311.707 11.7637 311.346 11.4457 311.092 11.0172C310.838 10.5887 310.718 10.0358 310.718 9.38607L310.731 9.37224ZM312.71 5.29435V6.17904H314.796V5.29435C314.796 4.97641 314.702 4.72759 314.515 4.54789C314.328 4.36818 314.074 4.27142 313.753 4.27142C313.432 4.27142 313.165 4.35436 312.977 4.53406C312.79 4.71377 312.697 4.96259 312.697 5.28053L312.71 5.29435Z" fill="#636466"/>
<path d="M322.336 10.1464C322.55 9.66253 322.724 9.22019 322.844 8.80548C322.965 8.39078 323.072 7.96226 323.152 7.50609C323.232 7.04992 323.285 6.51081 323.326 5.9164C323.366 5.322 323.379 4.58936 323.379 3.73231V0H329.957V10.1464H330.665V14.3763H328.553V11.971H323.753V14.3763H321.641V10.1464H322.336ZM327.778 1.82468H325.558V4.54789C325.558 5.86111 325.478 6.91168 325.318 7.71344C325.157 8.51519 324.89 9.33077 324.515 10.1464H327.764V1.82468H327.778Z" fill="#636466"/>
<path d="M331.748 9.37224V5.55699C331.748 4.89347 331.869 4.35436 332.123 3.92584C332.377 3.49731 332.724 3.17937 333.179 2.98585C333.633 2.79232 334.155 2.69556 334.757 2.69556C335.358 2.69556 335.88 2.79232 336.334 2.99967C336.789 3.20702 337.15 3.51114 337.39 3.93966C337.631 4.36818 337.765 4.9073 337.765 5.57082V7.67197H333.7V9.64871C333.7 9.96665 333.794 10.2293 333.981 10.3952C334.168 10.5611 334.422 10.6578 334.743 10.6578C335.064 10.6578 335.318 10.5611 335.505 10.3813C335.692 10.2016 335.786 9.95282 335.786 9.63489V9.12342H337.765V9.37224C337.765 10.3537 337.497 11.0725 336.949 11.5425C336.401 12.0125 335.666 12.2475 334.743 12.2475C334.142 12.2475 333.607 12.1507 333.166 11.9572C332.724 11.7637 332.363 11.4457 332.109 11.0172C331.855 10.5887 331.735 10.0358 331.735 9.38607L331.748 9.37224ZM333.727 5.29435V6.17904H335.813V5.29435C335.813 4.97641 335.719 4.72759 335.532 4.54789C335.345 4.36818 335.091 4.27142 334.77 4.27142C334.449 4.27142 334.182 4.35436 333.994 4.53406C333.807 4.71377 333.714 4.96259 333.714 5.28053L333.727 5.29435Z" fill="#636466"/>
<path d="M339.917 2.91673H345.439V11.971H343.46V4.53407H341.842V8.16961C341.842 9.19254 341.762 9.9943 341.588 10.5887C341.415 11.1831 341.187 11.584 340.88 11.8052C340.586 12.0402 340.225 12.1507 339.797 12.1507C339.409 12.1507 339.035 12.0954 338.66 11.9849V10.4919C338.834 10.5334 338.968 10.5472 339.088 10.5472C339.289 10.5472 339.436 10.5058 339.543 10.4228C339.65 10.3399 339.717 10.174 339.77 9.91136C339.824 9.64871 339.85 9.26166 339.877 8.75019C339.904 8.23873 339.904 7.43697 339.904 6.3864V2.93056L339.917 2.91673Z" fill="#636466"/>
<path d="M349.115 6.73198C349.73 6.45551 350.198 6.20669 350.492 5.99934C350.787 5.79199 350.934 5.5017 350.934 5.15612C350.934 4.63083 350.613 4.35436 349.984 4.35436C349.677 4.35436 349.436 4.45113 349.249 4.64465C349.062 4.83818 348.968 5.12847 348.968 5.51553V5.69523H347.043V5.23906C347.043 4.87965 347.11 4.54789 347.257 4.24378C347.404 3.93966 347.605 3.66319 347.872 3.41437C348.139 3.16555 348.447 2.99967 348.808 2.86144C349.169 2.7232 349.557 2.66791 349.984 2.66791C350.894 2.66791 351.629 2.86144 352.177 3.23467C352.739 3.62172 353.006 4.20231 353.006 4.99024V10.6302C353.006 10.9758 353.019 11.2384 353.059 11.4457C353.1 11.6531 353.166 11.819 353.26 11.9572H351.188C351.081 11.7913 351.027 11.501 351.027 11.1002C350.813 11.4872 350.573 11.7637 350.292 11.9572C350.011 12.1369 349.623 12.2337 349.129 12.2337C348.447 12.2337 347.912 12.0263 347.498 11.5978C347.083 11.1693 346.883 10.5472 346.883 9.73165C346.883 9.20636 346.963 8.77784 347.123 8.40461C347.284 8.03138 347.524 7.72726 347.859 7.46462C348.193 7.20198 348.607 6.95316 349.129 6.73198H349.115ZM350.934 9.51048V7.29874L349.637 8.15579C349.182 8.4599 348.968 8.88843 348.968 9.44136C348.968 9.81459 349.035 10.1187 349.182 10.3399C349.329 10.5749 349.543 10.6855 349.837 10.6855C350.158 10.6855 350.426 10.5887 350.626 10.3814C350.827 10.174 350.934 9.88371 350.934 9.49665V9.51048Z" fill="#636466"/>
<path d="M354.61 2.91673H357.271L358.568 8.97137L359.865 2.91673H362.525V11.971H360.6V5.557H360.587L359.196 11.971H357.953L356.562 5.557H356.549V11.971H354.624V2.91673H354.61Z" fill="#636466"/>
<path d="M366.162 8.32167L368.274 2.91673H370.186V11.971H368.261V6.63522L366.162 11.971H364.236V2.91673H366.162V8.32167Z" fill="#636466"/>
<path d="M375.641 11.971V0H382.94V11.971H380.748V1.81086H377.847V11.9849H375.654L375.641 11.971Z" fill="#636466"/>
<path d="M386.657 11.0172V14.8325H384.679V2.91673H386.657V3.92584C386.804 3.52496 387.032 3.22084 387.353 2.99967C387.673 2.7785 388.008 2.68173 388.369 2.68173C388.81 2.68173 389.198 2.76467 389.545 2.94438C389.893 3.12408 390.16 3.38672 390.361 3.73231C390.561 4.07789 390.655 4.50642 390.655 4.99023V9.33077C390.655 10.3261 390.441 11.0587 390.013 11.5287C389.585 11.9987 389.037 12.2337 388.382 12.2337C387.593 12.2337 387.018 11.819 386.684 11.0034L386.657 11.0172ZM386.657 5.47405V9.38607C386.657 9.77312 386.764 10.0772 386.965 10.3122C387.165 10.5472 387.393 10.6578 387.647 10.6578C387.927 10.6578 388.155 10.5472 388.328 10.3261C388.502 10.1049 388.596 9.80077 388.596 9.39989V5.48788C388.596 5.12847 388.516 4.852 388.342 4.65847C388.168 4.46495 387.941 4.38201 387.66 4.38201C387.406 4.38201 387.179 4.47877 386.978 4.6723C386.778 4.86582 386.684 5.14229 386.684 5.48788L386.657 5.47405Z" fill="#636466"/>
<path d="M391.885 9.37224V5.55699C391.885 4.89347 392.005 4.35436 392.259 3.92584C392.513 3.49731 392.861 3.17937 393.315 2.98585C393.77 2.79232 394.291 2.69556 394.893 2.69556C395.495 2.69556 396.016 2.79232 396.471 2.99967C396.925 3.20702 397.286 3.51114 397.527 3.93966C397.767 4.36818 397.901 4.9073 397.901 5.57082V7.67197H393.837V9.64871C393.837 9.96665 393.93 10.2293 394.118 10.3952C394.305 10.5611 394.559 10.6578 394.88 10.6578C395.2 10.6578 395.455 10.5611 395.642 10.3813C395.829 10.2016 395.922 9.95282 395.922 9.63489V9.12342H397.901V9.37224C397.901 10.3537 397.634 11.0725 397.086 11.5425C396.537 12.0125 395.802 12.2475 394.88 12.2475C394.278 12.2475 393.743 12.1507 393.302 11.9572C392.861 11.7637 392.5 11.4457 392.246 11.0172C391.992 10.5887 391.871 10.0358 391.871 9.38607L391.885 9.37224ZM393.85 5.29435V6.17904H395.936V5.29435C395.936 4.97641 395.842 4.72759 395.655 4.54789C395.468 4.36818 395.214 4.27142 394.893 4.27142C394.572 4.27142 394.305 4.35436 394.118 4.53406C393.93 4.71377 393.837 4.96259 393.837 5.28053L393.85 5.29435Z" fill="#636466"/>
<path d="M402.032 7.97608H401.564V6.48316H401.979C402.353 6.48316 402.621 6.3864 402.768 6.19287C402.915 5.99934 402.995 5.72288 402.995 5.33582C402.995 4.61701 402.701 4.2576 402.112 4.2576C401.765 4.2576 401.524 4.38201 401.377 4.61701C401.23 4.852 401.136 5.21141 401.11 5.68141H399.171C399.225 4.69995 399.519 3.95348 400.08 3.44202C400.628 2.91673 401.31 2.66791 402.112 2.66791C402.674 2.66791 403.169 2.76468 403.61 2.97203C404.051 3.17938 404.385 3.46967 404.626 3.8429C404.867 4.21613 404.987 4.65848 404.987 5.14229C404.987 6.09611 404.519 6.75963 403.583 7.13286C404.091 7.28492 404.479 7.57521 404.76 7.97608C405.04 8.37696 405.174 8.90225 405.174 9.55195C405.174 10.4228 404.907 11.0863 404.359 11.5425C403.81 11.9987 403.075 12.2199 402.139 12.2199C401.243 12.2199 400.508 11.971 399.933 11.4734C399.345 10.9758 399.064 10.1878 399.064 9.08195H400.989C400.989 10.1187 401.337 10.6302 402.046 10.6302C402.447 10.6302 402.714 10.5196 402.888 10.2846C403.048 10.0496 403.129 9.704 403.129 9.22019C403.129 8.81931 403.035 8.50137 402.834 8.2802C402.634 8.05902 402.366 7.94844 402.019 7.94844L402.032 7.97608Z" fill="#636466"/>
<path d="M408.49 8.32167L410.602 2.91673H412.514V11.971H410.589V6.63522L408.49 11.971H406.565V2.91673H408.49V8.32167Z" fill="#636466"/>
<path d="M414.292 10.3675C414.479 9.9943 414.627 9.62107 414.733 9.24783C414.84 8.8746 414.921 8.43226 414.974 7.92079C415.028 7.40933 415.054 6.73198 415.054 5.9164V2.91673H420.509V10.3675H421.231V14.169H419.373V11.9849H415.603V14.169H413.744V10.3675H414.306H414.292ZM418.53 10.3675V4.53407H416.939V6.6214C416.939 7.60285 416.886 8.33549 416.792 8.81931C416.699 9.30313 416.525 9.81459 416.284 10.3814H418.53V10.3675Z" fill="#636466"/>
<path d="M422.113 9.37224V5.55699C422.113 4.89347 422.234 4.35436 422.488 3.92584C422.742 3.49731 423.089 3.17937 423.544 2.98585C423.999 2.79232 424.52 2.69556 425.122 2.69556C425.723 2.69556 426.245 2.79232 426.699 2.99967C427.154 3.20702 427.515 3.51114 427.755 3.93966C427.996 4.36818 428.13 4.9073 428.13 5.57082V7.67197H424.065V9.64871C424.065 9.96665 424.159 10.2293 424.346 10.3952C424.533 10.5611 424.787 10.6578 425.108 10.6578C425.429 10.6578 425.683 10.5611 425.87 10.3813C426.057 10.2016 426.151 9.95282 426.151 9.63489V9.12342H428.13V9.37224C428.13 10.3537 427.862 11.0725 427.314 11.5425C426.766 12.0125 426.031 12.2475 425.108 12.2475C424.507 12.2475 423.972 12.1507 423.531 11.9572C423.089 11.7637 422.728 11.4457 422.474 11.0172C422.22 10.5887 422.1 10.0358 422.1 9.38607L422.113 9.37224ZM424.092 5.29435V6.17904H426.178V5.29435C426.178 4.97641 426.084 4.72759 425.897 4.54789C425.71 4.36818 425.456 4.27142 425.135 4.27142C424.814 4.27142 424.547 4.35436 424.36 4.53406C424.172 4.71377 424.079 4.96259 424.079 5.28053L424.092 5.29435Z" fill="#636466"/>
<path d="M433.424 7.97608H431.526V11.971H429.547V2.91673H431.526V6.37257H433.424V2.91673H435.403V11.971H433.424V7.97608Z" fill="#636466"/>
<path d="M438.438 11.971V4.53406H436.419V2.93055H442.435V4.53406H440.416V11.9849H438.438V11.971Z" fill="#636466"/>
<path d="M445.443 6.73198C446.058 6.45551 446.526 6.20669 446.82 5.99934C447.115 5.79199 447.262 5.5017 447.262 5.15612C447.262 4.63083 446.941 4.35436 446.312 4.35436C446.005 4.35436 445.764 4.45113 445.577 4.64465C445.39 4.83818 445.296 5.12847 445.296 5.51553V5.69523H443.371V5.23906C443.371 4.87965 443.438 4.54789 443.585 4.24378C443.732 3.93966 443.933 3.66319 444.2 3.41437C444.467 3.16555 444.775 2.99967 445.136 2.86144C445.497 2.7232 445.885 2.66791 446.312 2.66791C447.222 2.66791 447.957 2.86144 448.505 3.23467C449.067 3.62172 449.334 4.20231 449.334 4.99024V10.6302C449.334 10.9758 449.347 11.2384 449.387 11.4457C449.428 11.6531 449.494 11.819 449.588 11.9572H447.516C447.409 11.7913 447.355 11.501 447.355 11.1002C447.141 11.4872 446.901 11.7637 446.62 11.9572C446.339 12.1369 445.951 12.2337 445.457 12.2337C444.775 12.2337 444.24 12.0263 443.826 11.5978C443.411 11.1693 443.211 10.5472 443.211 9.73165C443.211 9.20636 443.291 8.77784 443.451 8.40461C443.612 8.03138 443.852 7.72726 444.187 7.46462C444.521 7.20198 444.935 6.95316 445.457 6.73198H445.443ZM447.275 9.51048V7.29874L445.978 8.15579C445.524 8.4599 445.31 8.88843 445.31 9.44136C445.31 9.81459 445.377 10.1187 445.524 10.3399C445.671 10.5749 445.885 10.6855 446.179 10.6855C446.5 10.6855 446.767 10.5887 446.968 10.3814C447.168 10.174 447.275 9.88371 447.275 9.49665V9.51048Z" fill="#636466"/>
<path d="M454.802 11.971V0H458.96C459.575 0 460.11 0.152057 460.564 0.469994C461.019 0.787932 461.393 1.20263 461.634 1.74174C461.875 2.28086 462.008 2.86144 462.008 3.51114C462.008 4.16083 461.875 4.76906 461.621 5.322C461.367 5.87493 461.006 6.30346 460.524 6.62139C460.056 6.93933 459.508 7.10521 458.907 7.10521H456.981V11.9849H454.789L454.802 11.971ZM458.104 1.76939H456.995V5.322H458.104C459.201 5.322 459.749 4.72759 459.749 3.52496C459.749 2.32233 459.201 1.76939 458.104 1.76939Z" fill="#636466"/>
<path d="M469.709 11.971H467.517V10.4919H466.875C466.206 10.4919 465.591 10.3261 465.016 10.0081C464.442 9.69018 463.974 9.19254 463.613 8.50137C463.252 7.8102 463.078 6.96698 463.078 5.94405C463.078 4.92112 463.252 4.10554 463.613 3.41437C463.974 2.7232 464.442 2.19792 465.016 1.86615C465.591 1.52057 466.206 1.35469 466.875 1.35469H467.517V0H469.709V1.35469H470.351C471.006 1.35469 471.621 1.52057 472.196 1.86615C472.771 2.21174 473.239 2.7232 473.6 3.41437C473.961 4.10554 474.135 4.94877 474.135 5.94405C474.135 6.93933 473.961 7.82403 473.6 8.50137C473.239 9.17872 472.784 9.69018 472.209 10.0081C471.634 10.3261 471.006 10.4919 470.351 10.4919H469.709V11.971ZM467.503 3.1379H466.995C466.487 3.1379 466.073 3.40055 465.779 3.91201C465.484 4.42348 465.324 5.11465 465.324 5.95787C465.324 6.8011 465.471 7.53374 465.765 8.00373C466.059 8.48755 466.474 8.72254 466.995 8.72254H467.503V3.1379ZM470.217 3.1379H469.709V8.72254H470.217C470.752 8.72254 471.166 8.48755 471.461 8.00373C471.741 7.51991 471.888 6.84257 471.888 5.95787C471.888 5.07318 471.741 4.42348 471.447 3.91201C471.153 3.40055 470.739 3.1379 470.231 3.1379H470.217Z" fill="#636466"/>
<path d="M116.59 25.3583C118.744 25.3583 120.186 26.3391 120.186 29.1852V33.1852C120.186 36.0314 118.744 36.9545 116.59 36.9545C114.436 36.9545 112.955 36.0121 112.955 33.1852V29.1852C112.955 26.3583 114.475 25.3583 116.59 25.3583ZM116.59 35.2429C117.513 35.2429 118.013 34.6275 118.013 33.4352V28.9545C118.013 27.7621 117.494 27.0506 116.59 27.0506C115.59 27.0506 115.109 27.7237 115.109 28.916V33.4352C115.109 34.5891 115.571 35.2429 116.59 35.2429Z" fill="#C9252C"/>
<path d="M124.744 36.7429V26.8006H130.032V28.2237H126.648V30.7621H128.225C129.763 30.7621 130.763 32.166 130.763 33.5698C130.763 35.4929 129.898 36.7621 128.398 36.7621H124.744M126.629 35.3391H127.725C128.436 35.3391 128.821 34.916 128.821 33.8006C128.821 32.8198 128.398 32.2621 127.686 32.2621H126.629V35.3391Z" fill="#08509F"/>
<path d="M137.494 26.8006V30.7621H139.09C140.629 30.7621 141.629 32.166 141.629 33.5698C141.629 35.4929 140.763 36.7621 139.263 36.7621H135.629V28.2237H133.917V26.8006H137.513M137.494 35.3391H138.59C139.302 35.3391 139.686 34.916 139.686 33.8006C139.686 32.8198 139.263 32.2621 138.552 32.2621H137.494V35.3391Z" fill="#08509F"/>
<path d="M145.552 26.8006H150.878V28.3968H147.436V30.666H150.571V32.166H147.436V35.2429H150.878V36.7429H145.552V26.8006Z" fill="#08509F"/>
<path d="M155.994 29.8968V26.7814H161.648V35.2237H162.263V38.7429H160.436V36.7429H156.321V38.7429H154.494V35.2237H155.09C155.744 33.7621 155.994 32.6275 155.994 29.8775M157.859 28.3006V30.5698C157.859 32.8583 157.532 33.9929 156.955 35.2237H159.763V28.3006H157.859Z" fill="#08509F"/>
<path d="M167.898 26.8006V30.5506C167.898 31.9352 167.821 33.2814 167.648 34.0506L170.417 26.8006H172.456V36.7621H170.686V32.9929C170.686 31.3198 170.763 30.3775 170.936 29.5314L168.167 36.7621H166.129V26.8006H167.917" fill="#08509F"/>
<path d="M178.532 30.666H181.013V26.8006H182.917V36.7429H181.013V32.166H178.532V36.7429H176.629V26.8006H178.532V30.666Z" fill="#08509F"/>
<path d="M187.128 26.8006H192.436V28.3968H189.013V30.666H192.148V32.166H189.013V35.2429H192.436V36.7429H187.128V26.8006Z" fill="#08509F"/>
<path d="M198.282 30.666H200.782V26.8006H202.667V36.7429H200.782V32.166H198.282V36.7429H196.398V26.8006H198.282V30.666Z" fill="#08509F"/>
<path d="M208.763 30.666H211.263V26.8006H213.148V36.7429H211.263V32.166H208.763V36.7429H206.879V26.8006H208.763V30.666Z" fill="#08509F"/>
<path d="M219.263 26.8006H221.802L224.013 36.7621H221.975L221.513 34.166H219.379L218.782 36.7621H216.744L219.263 26.8006ZM221.263 32.6852L220.494 28.0506L219.59 32.6852H221.263Z" fill="#08509F"/>
<path d="M231.725 36.7429V32.6852H230.802L229.09 36.7429H227.032L228.955 32.4737C227.975 32.0314 227.398 30.9545 227.398 29.7045C227.398 28.1083 228.359 26.8006 229.975 26.8006H233.609V36.7621H231.725M229.359 29.7237C229.359 30.666 229.821 31.2045 230.782 31.2045H231.725V28.2429H230.782C229.821 28.2429 229.359 28.7621 229.359 29.7045" fill="#08509F"/>
<path d="M244.052 36.7429V25.5506H249.994V27.1468H246.186V29.9929H247.975C249.725 29.9929 250.821 31.5698 250.821 33.166C250.821 35.3198 249.84 36.7429 248.148 36.7429H244.052ZM246.186 35.1468H247.398C248.186 35.1468 248.648 34.666 248.648 33.416C248.648 32.3198 248.167 31.7044 247.379 31.7044H246.186V35.166V35.1468Z" fill="#C9252C"/>
<path d="M258.302 26.6083C260.225 26.6083 261.513 27.4737 261.513 30.0121V33.5698C261.513 36.1083 260.225 36.9352 258.302 36.9352C256.379 36.9352 255.071 36.0891 255.071 33.5698V30.0121C255.071 27.4929 256.417 26.6083 258.302 26.6083ZM258.302 35.416C259.129 35.416 259.571 34.8583 259.571 33.8198V29.8391C259.571 28.7814 259.109 28.1468 258.302 28.1468C257.417 28.1468 256.994 28.7621 256.994 29.8198V33.8391C256.994 34.8775 257.417 35.4352 258.302 35.4352" fill="#08509F"/>
<path d="M272.263 26.8006V36.7621H270.359V28.3006H268.34V32.1468C268.34 35.4737 267.802 36.9545 266.205 36.9545C265.763 36.9545 265.417 36.9352 265.052 36.8391V35.4352C265.167 35.4737 265.436 35.5121 265.667 35.5121C266.244 35.5121 266.475 35.2045 266.475 31.5891V26.8006H272.244" fill="#08509F"/>
<path d="M278.379 30.7621H279.955C281.494 30.7621 282.494 32.166 282.494 33.5698C282.494 35.4929 281.629 36.7621 280.129 36.7621H276.475V26.8006H278.359V30.7621M278.379 35.3391H279.475C280.186 35.3391 280.59 34.916 280.59 33.8006C280.59 32.8198 280.167 32.2621 279.456 32.2621H278.398V35.3391H278.379Z" fill="#08509F"/>
<path d="M288.34 30.666H290.821V26.8006H292.725V36.7429H290.821V32.166H288.34V36.7429H286.436V26.8006H288.34V30.666Z" fill="#08509F"/>
<path d="M298.706 26.8006V30.5506C298.706 31.9352 298.629 33.2814 298.456 34.0506L301.225 26.8006H303.263V36.7621H301.494V32.9929C301.494 31.3198 301.552 30.3775 301.744 29.5314L298.975 36.7621H296.936V26.8006H298.706Z" fill="#08509F"/>
<path d="M311.821 35.2429V26.8006H313.725V35.2429H314.321V38.7621H312.513V36.7429H307.436V26.8006H309.34V35.2429H311.821Z" fill="#08509F"/>
<path d="M320.071 26.8006H322.609L324.821 36.7621H322.782L322.321 34.166H320.186L319.59 36.7621H317.571L320.09 26.8006H320.071ZM322.071 32.6852L321.321 28.0506L320.417 32.6852H322.09H322.071Z" fill="#08509F"/>
<path d="M338.436 29.8198C338.436 28.5698 338.128 28.1275 337.321 28.1275C336.513 28.1275 336.186 28.5506 336.186 29.8198V33.7429C336.186 35.0314 336.513 35.4737 337.321 35.4737C338.09 35.4737 338.455 35.0314 338.455 33.7429V33.2045H340.359V33.666C340.359 35.4737 339.686 36.9929 337.34 36.9929C334.859 36.9929 334.263 35.4352 334.263 33.666V30.0506C334.263 27.7237 335.321 26.6275 337.378 26.6275C339.302 26.6275 340.378 27.7429 340.378 29.5891V30.0506H338.475V29.8391" fill="#08509F"/>
<path d="M357.532 25.5506V36.7621H355.417V27.2429H352.609V36.7621H350.475V25.5506H357.532Z" fill="#C9252C"/>
<path d="M365.321 26.6083C367.244 26.6083 368.513 27.4737 368.513 30.0121V33.5698C368.513 36.1083 367.225 36.9352 365.321 36.9352C363.417 36.9352 362.071 36.0891 362.071 33.5698V30.0121C362.071 27.4929 363.417 26.6083 365.321 26.6083ZM365.321 35.416C366.129 35.416 366.59 34.8583 366.59 33.8198V29.8391C366.59 28.7814 366.129 28.1468 365.321 28.1468C364.417 28.1468 364.013 28.7621 364.013 29.8198V33.8391C364.013 34.8775 364.436 35.4352 365.321 35.4352" fill="#08509F"/>
<path d="M379.282 26.8006V36.7621H377.398V28.3006H375.379V32.1468C375.379 35.4737 374.821 36.9545 373.244 36.9545C372.802 36.9545 372.455 36.9352 372.09 36.8391V35.4352C372.205 35.4737 372.475 35.5121 372.705 35.5121C373.282 35.5121 373.513 35.2045 373.513 31.5891V26.8006H379.282Z" fill="#08509F"/>
<path d="M385.282 26.8006V30.5506C385.282 31.9352 385.205 33.2814 385.032 34.0506L387.802 26.8006H389.84V36.7621H388.052V32.9929C388.052 31.3198 388.129 30.3775 388.302 29.5314L385.532 36.7621H383.494V26.8006H385.282Z" fill="#08509F"/>
<path d="M395.917 31.1083L398.205 26.8006H400.34L397.821 31.1083L400.417 36.7429H398.321L396.667 32.7814L395.917 33.7621V36.7429H394.013V26.8006H395.917V31.1083Z" fill="#08509F"/>
<path d="M410.859 26.8006V36.7621H408.975V28.3006H406.955V32.1468C406.955 35.4737 406.398 36.9545 404.821 36.9545C404.378 36.9545 404.032 36.9352 403.667 36.8391V35.4352C403.782 35.4737 404.051 35.5121 404.282 35.5121C404.859 35.5121 405.09 35.2045 405.09 31.5891V26.8006H410.859Z" fill="#08509F"/>
<path d="M416.879 26.8006V30.5506C416.879 31.9352 416.802 33.2814 416.629 34.0506L419.398 26.8006H421.436V36.7621H419.648V32.9929C419.648 31.3198 419.725 30.3775 419.898 29.5314L417.129 36.7621H415.09V26.8006H416.879Z" fill="#08509F"/>
<path d="M427.494 30.666H429.994V26.8006H431.879V36.7429H429.994V32.166H427.494V36.7429H425.609V26.8006H427.494V30.666Z" fill="#08509F"/>
<path d="M437.859 26.8006V30.5506C437.859 31.9352 437.782 33.2814 437.609 34.0506L440.379 26.8006H442.417V36.7621H440.648V32.9929C440.648 31.3198 440.725 30.3775 440.898 29.5314L438.129 36.7621H436.09V26.8006H437.879" fill="#08509F"/>
<path d="M448.494 31.1083L450.782 26.8006H452.917L450.398 31.1083L453.013 36.7429H450.898L449.244 32.7814L448.494 33.7621V36.7429H446.609V26.8006H448.494V31.1083Z" fill="#08509F"/>
<path d="M459.898 26.6083C461.821 26.6083 463.09 27.4737 463.09 30.0121V33.5698C463.09 36.1083 461.802 36.9352 459.898 36.9352C457.994 36.9352 456.648 36.0891 456.648 33.5698V30.0121C456.648 27.4929 457.994 26.6083 459.898 26.6083ZM459.898 35.416C460.705 35.416 461.167 34.8583 461.167 33.8198V29.8391C461.167 28.7814 460.725 28.1468 459.898 28.1468C458.994 28.1468 458.59 28.7621 458.59 29.8198V33.8391C458.59 34.8775 459.013 35.4352 459.898 35.4352" fill="#08509F"/>
<path d="M468.936 26.8006V30.3391C468.936 31.6275 468.936 32.8968 468.686 34.0506L471.455 26.8006H473.494V36.7621H471.725V33.2429C471.725 31.9545 471.725 30.666 471.975 29.5314L469.205 36.7621H467.167V26.8006H468.955M469.263 24.0891C469.263 24.8391 469.648 25.2237 470.263 25.2237C470.879 25.2237 471.263 24.8391 471.263 24.0891H472.244C472.244 25.1468 471.84 26.166 470.244 26.166C468.648 26.166 468.302 25.166 468.302 24.0891H469.282H469.263Z" fill="#08509F"/>
</svg>
